{
    "asset" : {
        "generator" : "Khronos glTF Blender I/O v1.7.33",
        "version" : "2.0"
    },
    "scene" : 0,
    "scenes" : [
        {
            "name" : "Scene",
            "nodes" : [
                0
            ]
        }
    ],
    "nodes" : [
        {
            "mesh" : 0,
            "name" : "Cylinder.003",
            "rotation" : [
                0,
                0,
                -0.26153305172920227,
                0.9651945233345032
            ],
            "translation" : [
                0,
                0.5245457291603088,
                0
            ]
        }
    ],
    "materials" : [
        {
            "doubleSided" : true,
            "name" : "spearhead",
            "pbrMetallicRoughness" : {
                "baseColorTexture" : {
                    "index" : 0
                },
                "metallicFactor" : 0,
                "roughnessFactor" : 0.5
            }
        },
        {
            "doubleSided" : true,
            "name" : "spear1",
            "pbrMetallicRoughness" : {
                "baseColorTexture" : {
                    "index" : 1
                },
                "metallicFactor" : 0,
                "roughnessFactor" : 0.5
            }
        },
        {
            "doubleSided" : true,
            "name" : "spear2",
            "pbrMetallicRoughness" : {
                "baseColorTexture" : {
                    "index" : 2
                },
                "metallicFactor" : 0,
                "roughnessFactor" : 0.5
            }
        },
        {
            "doubleSided" : true,
            "name" : "shield1",
            "pbrMetallicRoughness" : {
                "baseColorTexture" : {
                    "index" : 3
                },
                "metallicFactor" : 0,
                "roughnessFactor" : 0.5
            }
        },
        {
            "doubleSided" : true,
            "name" : "sheild2",
            "pbrMetallicRoughness" : {
                "baseColorTexture" : {
                    "index" : 4
                },
                "metallicFactor" : 0,
                "roughnessFactor" : 0.5
            }
        },
        {
            "doubleSided" : true,
            "name" : "sheild3",
            "pbrMetallicRoughness" : {
                "baseColorTexture" : {
                    "index" : 5
                },
                "metallicFactor" : 0,
                "roughnessFactor" : 0.5
            }
        },
        {
            "doubleSided" : true,
            "name" : "sheild4",
            "pbrMetallicRoughness" : {
                "baseColorTexture" : {
                    "index" : 6
                },
                "metallicFactor" : 0,
                "roughnessFactor" : 0.5
            }
        }
    ],
    "meshes" : [
        {
            "name" : "Cylinder.005",
            "primitives" : [
                {
                    "attributes" : {
                        "POSITION" : 0,
                        "NORMAL" : 1,
                        "TEXCOORD_0" : 2
                    },
                    "indices" : 3,
                    "material" : 0
                },
                {
                    "attributes" : {
                        "POSITION" : 4,
                        "NORMAL" : 5,
                        "TEXCOORD_0" : 6
                    },
                    "indices" : 7,
                    "material" : 1
                },
                {
                    "attributes" : {
                        "POSITION" : 8,
                        "NORMAL" : 9,
                        "TEXCOORD_0" : 10
                    },
                    "indices" : 11,
                    "material" : 2
                },
                {
                    "attributes" : {
                        "POSITION" : 12,
                        "NORMAL" : 13,
                        "TEXCOORD_0" : 14
                    },
                    "indices" : 15,
                    "material" : 3
                },
                {
                    "attributes" : {
                        "POSITION" : 16,
                        "NORMAL" : 17,
                        "TEXCOORD_0" : 18
                    },
                    "indices" : 19,
                    "material" : 4
                },
                {
                    "attributes" : {
                        "POSITION" : 20,
                        "NORMAL" : 21,
                        "TEXCOORD_0" : 22
                    },
                    "indices" : 23,
                    "material" : 5
                },
                {
                    "attributes" : {
                        "POSITION" : 24,
                        "NORMAL" : 25,
                        "TEXCOORD_0" : 26
                    },
                    "indices" : 27,
                    "material" : 6
                }
            ]
        }
    ],
    "textures" : [
        {
            "sampler" : 0,
            "source" : 0
        },
        {
            "sampler" : 0,
            "source" : 1
        },
        {
            "sampler" : 0,
            "source" : 2
        },
        {
            "sampler" : 0,
            "source" : 3
        },
        {
            "sampler" : 0,
            "source" : 4
        },
        {
            "sampler" : 0,
            "source" : 5
        },
        {
            "sampler" : 0,
            "source" : 6
        }
    ],
    "images" : [
        {
            "bufferView" : 4,
            "mimeType" : "image/png",
            "name" : "spearhead_baseColor"
        },
        {
            "bufferView" : 9,
            "mimeType" : "image/png",
            "name" : "spear1_baseColor"
        },
        {
            "bufferView" : 14,
            "mimeType" : "image/png",
            "name" : "spear2_baseColor"
        },
        {
            "bufferView" : 19,
            "mimeType" : "image/png",
            "name" : "shield1_baseColor"
        },
        {
            "bufferView" : 24,
            "mimeType" : "image/png",
            "name" : "sheild2_baseColor"
        },
        {
            "bufferView" : 29,
            "mimeType" : "image/png",
            "name" : "sheild3_baseColor"
        },
        {
            "bufferView" : 34,
            "mimeType" : "image/png",
            "name" : "sheild4_baseColor"
        }
    ],
    "accessors" : [
        {
            "bufferView" : 0,
            "componentType" : 5126,
            "count" : 244,
            "max" : [
                0.08353734016418457,
                1.1500318050384521,
                0.0711333155632019
            ],
            "min" : [
                -0.08353698253631592,
                0.4417703151702881,
                -0.0711333155632019
            ],
            "type" : "VEC3"
        },
        {
            "bufferView" : 1,
            "componentType" : 5126,
            "count" : 244,
            "type" : "VEC3"
        },
        {
            "bufferView" : 2,
            "componentType" : 5126,
            "count" : 244,
            "type" : "VEC2"
        },
        {
            "bufferView" : 3,
            "componentType" : 5123,
            "count" : 606,
            "type" : "SCALAR"
        },
        {
            "bufferView" : 5,
            "componentType" : 5126,
            "count" : 40,
            "max" : [
                0.03998303413391113,
                0.4417703151702881,
                0.03998260572552681
            ],
            "min" : [
                -0.03998208045959473,
                -1.6912038326263428,
                -0.03998260572552681
            ],
            "type" : "VEC3"
        },
        {
            "bufferView" : 6,
            "componentType" : 5126,
            "count" : 40,
            "type" : "VEC3"
        },
        {
            "bufferView" : 7,
            "componentType" : 5126,
            "count" : 40,
            "type" : "VEC2"
        },
        {
            "bufferView" : 8,
            "componentType" : 5123,
            "count" : 96,
            "type" : "SCALAR"
        },
        {
            "bufferView" : 10,
            "componentType" : 5126,
            "count" : 56,
            "max" : [
                0.03998303413391113,
                -1.6912038326263428,
                0.03998260572552681
            ],
            "min" : [
                -0.03998208045959473,
                -1.9084428548812866,
                -0.03998260572552681
            ],
            "type" : "VEC3"
        },
        {
            "bufferView" : 11,
            "componentType" : 5126,
            "count" : 56,
            "type" : "VEC3"
        },
        {
            "bufferView" : 12,
            "componentType" : 5126,
            "count" : 56,
            "type" : "VEC2"
        },
        {
            "bufferView" : 13,
            "componentType" : 5123,
            "count" : 138,
            "type" : "SCALAR"
        },
        {
            "bufferView" : 15,
            "componentType" : 5126,
            "count" : 144,
            "max" : [
                0.6856630444526672,
                0.08873474597930908,
                0.1043224185705185
            ],
            "min" : [
                -0.41464513540267944,
                -1.0115735530853271,
                0.04122366011142731
            ],
            "type" : "VEC3"
        },
        {
            "bufferView" : 16,
            "componentType" : 5126,
            "count" : 144,
            "type" : "VEC3"
        },
        {
            "bufferView" : 17,
            "componentType" : 5126,
            "count" : 144,
            "type" : "VEC2"
        },
        {
            "bufferView" : 18,
            "componentType" : 5123,
            "count" : 384,
            "type" : "SCALAR"
        },
        {
            "bufferView" : 20,
            "componentType" : 5126,
            "count" : 84,
            "max" : [
                0.24235166609287262,
                -0.35850024223327637,
                0.06993542611598969
            ],
            "min" : [
                -0.17731672525405884,
                -0.7897281646728516,
                -0.0995529443025589
            ],
            "type" : "VEC3"
        },
        {
            "bufferView" : 21,
            "componentType" : 5126,
            "count" : 84,
            "type" : "VEC3"
        },
        {
            "bufferView" : 22,
            "componentType" : 5126,
            "count" : 84,
            "type" : "VEC2"
        },
        {
            "bufferView" : 23,
            "componentType" : 5123,
            "count" : 204,
            "type" : "SCALAR"
        },
        {
            "bufferView" : 25,
            "componentType" : 5126,
            "count" : 80,
            "max" : [
                0.575532853603363,
                -0.021395564079284668,
                0.08058112114667892
            ],
            "min" : [
                -0.3045145869255066,
                -0.9014431238174438,
                0.0633908063173294
            ],
            "type" : "VEC3"
        },
        {
            "bufferView" : 26,
            "componentType" : 5126,
            "count" : 80,
            "type" : "VEC3"
        },
        {
            "bufferView" : 27,
            "componentType" : 5126,
            "count" : 80,
            "type" : "VEC2"
        },
        {
            "bufferView" : 28,
            "componentType" : 5123,
            "count" : 138,
            "type" : "SCALAR"
        },
        {
            "bufferView" : 30,
            "componentType" : 5126,
            "count" : 66,
            "max" : [
                0.3908229172229767,
                -0.2061055302619934,
                0.23089486360549927
            ],
            "min" : [
                -0.11980472505092621,
                -0.7167331576347351,
                0.08058110624551773
            ],
            "type" : "VEC3"
        },
        {
            "bufferView" : 31,
            "componentType" : 5126,
            "count" : 66,
            "type" : "VEC3"
        },
        {
            "bufferView" : 32,
            "componentType" : 5126,
            "count" : 66,
            "type" : "VEC2"
        },
        {
            "bufferView" : 33,
            "componentType" : 5123,
            "count" : 240,
            "type" : "SCALAR"
        }
    ],
    "bufferViews" : [
        {
            "buffer" : 0,
            "byteLength" : 2928,
            "byteOffset" : 0
        },
        {
            "buffer" : 0,
            "byteLength" : 2928,
            "byteOffset" : 2928
        },
        {
            "buffer" : 0,
            "byteLength" : 1952,
            "byteOffset" : 5856
        },
        {
            "buffer" : 0,
            "byteLength" : 1212,
            "byteOffset" : 7808
        },
        {
            "buffer" : 0,
            "byteLength" : 19038,
            "byteOffset" : 9020
        },
        {
            "buffer" : 0,
            "byteLength" : 480,
            "byteOffset" : 28060
        },
        {
            "buffer" : 0,
            "byteLength" : 480,
            "byteOffset" : 28540
        },
        {
            "buffer" : 0,
            "byteLength" : 320,
            "byteOffset" : 29020
        },
        {
            "buffer" : 0,
            "byteLength" : 192,
            "byteOffset" : 29340
        },
        {
            "buffer" : 0,
            "byteLength" : 20109,
            "byteOffset" : 29532
        },
        {
            "buffer" : 0,
            "byteLength" : 672,
            "byteOffset" : 49644
        },
        {
            "buffer" : 0,
            "byteLength" : 672,
            "byteOffset" : 50316
        },
        {
            "buffer" : 0,
            "byteLength" : 448,
            "byteOffset" : 50988
        },
        {
            "buffer" : 0,
            "byteLength" : 276,
            "byteOffset" : 51436
        },
        {
            "buffer" : 0,
            "byteLength" : 11729,
            "byteOffset" : 51712
        },
        {
            "buffer" : 0,
            "byteLength" : 1728,
            "byteOffset" : 63444
        },
        {
            "buffer" : 0,
            "byteLength" : 1728,
            "byteOffset" : 65172
        },
        {
            "buffer" : 0,
            "byteLength" : 1152,
            "byteOffset" : 66900
        },
        {
            "buffer" : 0,
            "byteLength" : 768,
            "byteOffset" : 68052
        },
        {
            "buffer" : 0,
            "byteLength" : 12695,
            "byteOffset" : 68820
        },
        {
            "buffer" : 0,
            "byteLength" : 1008,
            "byteOffset" : 81516
        },
        {
            "buffer" : 0,
            "byteLength" : 1008,
            "byteOffset" : 82524
        },
        {
            "buffer" : 0,
            "byteLength" : 672,
            "byteOffset" : 83532
        },
        {
            "buffer" : 0,
            "byteLength" : 408,
            "byteOffset" : 84204
        },
        {
            "buffer" : 0,
            "byteLength" : 13575,
            "byteOffset" : 84612
        },
        {
            "buffer" : 0,
            "byteLength" : 960,
            "byteOffset" : 98188
        },
        {
            "buffer" : 0,
            "byteLength" : 960,
            "byteOffset" : 99148
        },
        {
            "buffer" : 0,
            "byteLength" : 640,
            "byteOffset" : 100108
        },
        {
            "buffer" : 0,
            "byteLength" : 276,
            "byteOffset" : 100748
        },
        {
            "buffer" : 0,
            "byteLength" : 25263,
            "byteOffset" : 101024
        },
        {
            "buffer" : 0,
            "byteLength" : 792,
            "byteOffset" : 126288
        },
        {
            "buffer" : 0,
            "byteLength" : 792,
            "byteOffset" : 127080
        },
        {
            "buffer" : 0,
            "byteLength" : 528,
            "byteOffset" : 127872
        },
        {
            "buffer" : 0,
            "byteLength" : 480,
            "byteOffset" : 128400
        },
        {
            "buffer" : 0,
            "byteLength" : 17158,
            "byteOffset" : 128880
        }
    ],
    "samplers" : [
        {
            "magFilter" : 9728,
            "minFilter" : 9984
        }
    ],
    "buffers" : [
        {
            "byteLength" : 146040,
            "uri" : "data:application/octet-stream;base64,"
        }
    ]
}
