{
    "asset" : {
        "generator" : "Khronos glTF Blender I/O v1.7.33",
        "version" : "2.0"
    },
    "scene" : 0,
    "scenes" : [
        {
            "name" : "Scene",
            "nodes" : [
                0
            ]
        }
    ],
    "nodes" : [
        {
            "mesh" : 0,
            "name" : "Cylinder.006",
            "scale" : [
                0.7733020782470703,
                0.7733020782470703,
                0.7733020782470703
            ]
        }
    ],
    "materials" : [
        {
            "doubleSided" : true,
            "name" : "mace1",
            "pbrMetallicRoughness" : {
                "baseColorTexture" : {
                    "index" : 0
                },
                "metallicFactor" : 0,
                "roughnessFactor" : 0.5
            }
        },
        {
            "doubleSided" : true,
            "name" : "mace2",
            "pbrMetallicRoughness" : {
                "baseColorTexture" : {
                    "index" : 1
                },
                "metallicFactor" : 0,
                "roughnessFactor" : 0.5
            }
        },
        {
            "doubleSided" : true,
            "name" : "macehead",
            "pbrMetallicRoughness" : {
                "baseColorTexture" : {
                    "index" : 2
                },
                "metallicFactor" : 0,
                "roughnessFactor" : 0.5
            }
        }
    ],
    "meshes" : [
        {
            "name" : "Cylinder.007",
            "primitives" : [
                {
                    "attributes" : {
                        "POSITION" : 0,
                        "NORMAL" : 1,
                        "TEXCOORD_0" : 2
                    },
                    "indices" : 3,
                    "material" : 0
                },
                {
                    "attributes" : {
                        "POSITION" : 4,
                        "NORMAL" : 5,
                        "TEXCOORD_0" : 6
                    },
                    "indices" : 7,
                    "material" : 1
                },
                {
                    "attributes" : {
                        "POSITION" : 8,
                        "NORMAL" : 9,
                        "TEXCOORD_0" : 10
                    },
                    "indices" : 11,
                    "material" : 2
                }
            ]
        }
    ],
    "textures" : [
        {
            "sampler" : 0,
            "source" : 0
        },
        {
            "sampler" : 0,
            "source" : 1
        },
        {
            "sampler" : 0,
            "source" : 2
        }
    ],
    "images" : [
        {
            "bufferView" : 4,
            "mimeType" : "image/png",
            "name" : "mace1_baseColor"
        },
        {
            "bufferView" : 9,
            "mimeType" : "image/png",
            "name" : "mace2_baseColor"
        },
        {
            "bufferView" : 14,
            "mimeType" : "image/png",
            "name" : "macehead_baseColor"
        }
    ],
    "accessors" : [
        {
            "bufferView" : 0,
            "componentType" : 5126,
            "count" : 426,
            "max" : [
                0.07469749450683594,
                0.877814769744873,
                0.07511404156684875
            ],
            "min" : [
                -0.075531005859375,
                -1.256443738937378,
                -0.07511405646800995
            ],
            "type" : "VEC3"
        },
        {
            "bufferView" : 1,
            "componentType" : 5126,
            "count" : 426,
            "type" : "VEC3"
        },
        {
            "bufferView" : 2,
            "componentType" : 5126,
            "count" : 426,
            "type" : "VEC2"
        },
        {
            "bufferView" : 3,
            "componentType" : 5123,
            "count" : 1248,
            "type" : "SCALAR"
        },
        {
            "bufferView" : 5,
            "componentType" : 5126,
            "count" : 40,
            "max" : [
                0.04686164855957031,
                0.3290257453918457,
                0.047278936952352524
            ],
            "min" : [
                -0.04769611358642578,
                -0.660834789276123,
                -0.04727895185351372
            ],
            "type" : "VEC3"
        },
        {
            "bufferView" : 6,
            "componentType" : 5126,
            "count" : 40,
            "type" : "VEC3"
        },
        {
            "bufferView" : 7,
            "componentType" : 5126,
            "count" : 40,
            "type" : "VEC2"
        },
        {
            "bufferView" : 8,
            "componentType" : 5123,
            "count" : 96,
            "type" : "SCALAR"
        },
        {
            "bufferView" : 10,
            "componentType" : 5126,
            "count" : 174,
            "max" : [
                0.21250391006469727,
                0.7957024574279785,
                0.21769046783447266
            ],
            "min" : [
                -0.20980548858642578,
                0.2763185501098633,
                -0.18394996225833893
            ],
            "type" : "VEC3"
        },
        {
            "bufferView" : 11,
            "componentType" : 5126,
            "count" : 174,
            "type" : "VEC3"
        },
        {
            "bufferView" : 12,
            "componentType" : 5126,
            "count" : 174,
            "type" : "VEC2"
        },
        {
            "bufferView" : 13,
            "componentType" : 5123,
            "count" : 360,
            "type" : "SCALAR"
        }
    ],
    "bufferViews" : [
        {
            "buffer" : 0,
            "byteLength" : 5112,
            "byteOffset" : 0
        },
        {
            "buffer" : 0,
            "byteLength" : 5112,
            "byteOffset" : 5112
        },
        {
            "buffer" : 0,
            "byteLength" : 3408,
            "byteOffset" : 10224
        },
        {
            "buffer" : 0,
            "byteLength" : 2496,
            "byteOffset" : 13632
        },
        {
            "buffer" : 0,
            "byteLength" : 12765,
            "byteOffset" : 16128
        },
        {
            "buffer" : 0,
            "byteLength" : 480,
            "byteOffset" : 28896
        },
        {
            "buffer" : 0,
            "byteLength" : 480,
            "byteOffset" : 29376
        },
        {
            "buffer" : 0,
            "byteLength" : 320,
            "byteOffset" : 29856
        },
        {
            "buffer" : 0,
            "byteLength" : 192,
            "byteOffset" : 30176
        },
        {
            "buffer" : 0,
            "byteLength" : 9291,
            "byteOffset" : 30368
        },
        {
            "buffer" : 0,
            "byteLength" : 2088,
            "byteOffset" : 39660
        },
        {
            "buffer" : 0,
            "byteLength" : 2088,
            "byteOffset" : 41748
        },
        {
            "buffer" : 0,
            "byteLength" : 1392,
            "byteOffset" : 43836
        },
        {
            "buffer" : 0,
            "byteLength" : 720,
            "byteOffset" : 45228
        },
        {
            "buffer" : 0,
            "byteLength" : 15747,
            "byteOffset" : 45948
        }
    ],
    "samplers" : [
        {
            "magFilter" : 9728,
            "minFilter" : 9984
        }
    ],
    "buffers" : [
        {
            "byteLength" : 61696,
            "uri" : "data:application/octet-stream;base64,"
        }
    ]
}
