{
    "asset" : {
        "generator" : "Khronos glTF Blender I/O v1.7.33",
        "version" : "2.0"
    },
    "scene" : 0,
    "scenes" : [
        {
            "name" : "Scene",
            "nodes" : [
                0
            ]
        }
    ],
    "nodes" : [
        {
            "mesh" : 0,
            "name" : "Sphere.002",
            "translation" : [
                -1.1331249475479126,
                0,
                -6.717433929443359
            ]
        }
    ],
    "materials" : [
        {
            "doubleSided" : true,
            "name" : "sword",
            "pbrMetallicRoughness" : {
                "baseColorTexture" : {
                    "index" : 0
                },
                "metallicFactor" : 0,
                "roughnessFactor" : 0.5
            }
        },
        {
            "doubleSided" : true,
            "name" : "sword2",
            "pbrMetallicRoughness" : {
                "baseColorTexture" : {
                    "index" : 1
                },
                "metallicFactor" : 0,
                "roughnessFactor" : 0.5
            }
        },
        {
            "doubleSided" : true,
            "name" : "sword3",
            "pbrMetallicRoughness" : {
                "baseColorTexture" : {
                    "index" : 2
                },
                "metallicFactor" : 0,
                "roughnessFactor" : 0.5
            }
        },
        {
            "doubleSided" : true,
            "name" : "sword4",
            "pbrMetallicRoughness" : {
                "baseColorTexture" : {
                    "index" : 3
                },
                "metallicFactor" : 0,
                "roughnessFactor" : 0.5
            }
        }
    ],
    "meshes" : [
        {
            "name" : "Sphere.002",
            "primitives" : [
                {
                    "attributes" : {
                        "POSITION" : 0,
                        "NORMAL" : 1,
                        "TEXCOORD_0" : 2
                    },
                    "indices" : 3,
                    "material" : 0
                },
                {
                    "attributes" : {
                        "POSITION" : 4,
                        "NORMAL" : 5,
                        "TEXCOORD_0" : 6
                    },
                    "indices" : 7,
                    "material" : 1
                },
                {
                    "attributes" : {
                        "POSITION" : 8,
                        "NORMAL" : 9,
                        "TEXCOORD_0" : 10
                    },
                    "indices" : 11,
                    "material" : 2
                },
                {
                    "attributes" : {
                        "POSITION" : 12,
                        "NORMAL" : 13,
                        "TEXCOORD_0" : 14
                    },
                    "indices" : 15,
                    "material" : 3
                }
            ]
        }
    ],
    "textures" : [
        {
            "sampler" : 0,
            "source" : 0
        },
        {
            "sampler" : 0,
            "source" : 1
        },
        {
            "sampler" : 0,
            "source" : 2
        },
        {
            "sampler" : 0,
            "source" : 3
        }
    ],
    "images" : [
        {
            "bufferView" : 4,
            "mimeType" : "image/png",
            "name" : "sword_baseColor"
        },
        {
            "bufferView" : 9,
            "mimeType" : "image/png",
            "name" : "sword2_baseColor"
        },
        {
            "bufferView" : 14,
            "mimeType" : "image/png",
            "name" : "sword3_baseColor"
        },
        {
            "bufferView" : 19,
            "mimeType" : "image/png",
            "name" : "sword4_baseColor"
        }
    ],
    "accessors" : [
        {
            "bufferView" : 0,
            "componentType" : 5126,
            "count" : 417,
            "max" : [
                0.17122782766819,
                3.7506566047668457,
                3.144794464111328
            ],
            "min" : [
                -0.17122779786586761,
                1.8853716850280762,
                2.944833993911743
            ],
            "type" : "VEC3"
        },
        {
            "bufferView" : 1,
            "componentType" : 5126,
            "count" : 417,
            "type" : "VEC3"
        },
        {
            "bufferView" : 2,
            "componentType" : 5126,
            "count" : 417,
            "type" : "VEC2"
        },
        {
            "bufferView" : 3,
            "componentType" : 5123,
            "count" : 1122,
            "type" : "SCALAR"
        },
        {
            "bufferView" : 5,
            "componentType" : 5126,
            "count" : 97,
            "max" : [
                0.17122782766819,
                2.2624917030334473,
                3.144794464111328
            ],
            "min" : [
                -0.17122779786586761,
                2.1397628784179688,
                2.944833993911743
            ],
            "type" : "VEC3"
        },
        {
            "bufferView" : 6,
            "componentType" : 5126,
            "count" : 97,
            "type" : "VEC3"
        },
        {
            "bufferView" : 7,
            "componentType" : 5126,
            "count" : 97,
            "type" : "VEC2"
        },
        {
            "bufferView" : 8,
            "componentType" : 5123,
            "count" : 384,
            "type" : "SCALAR"
        },
        {
            "bufferView" : 10,
            "componentType" : 5126,
            "count" : 1120,
            "max" : [
                0.05158475041389465,
                2.1562414169311523,
                3.0963988304138184
            ],
            "min" : [
                -0.05158472806215286,
                1.9305167198181152,
                2.993229389190674
            ],
            "type" : "VEC3"
        },
        {
            "bufferView" : 11,
            "componentType" : 5126,
            "count" : 1120,
            "type" : "VEC3"
        },
        {
            "bufferView" : 12,
            "componentType" : 5126,
            "count" : 1120,
            "type" : "VEC2"
        },
        {
            "bufferView" : 13,
            "componentType" : 5123,
            "count" : 3330,
            "type" : "SCALAR"
        },
        {
            "bufferView" : 15,
            "componentType" : 5126,
            "count" : 590,
            "max" : [
                0.0845174640417099,
                1.9713994264602661,
                3.109278917312622
            ],
            "min" : [
                -0.08451738953590393,
                1.8424683809280396,
                2.9803478717803955
            ],
            "type" : "VEC3"
        },
        {
            "bufferView" : 16,
            "componentType" : 5126,
            "count" : 590,
            "type" : "VEC3"
        },
        {
            "bufferView" : 17,
            "componentType" : 5126,
            "count" : 590,
            "type" : "VEC2"
        },
        {
            "bufferView" : 18,
            "componentType" : 5123,
            "count" : 2880,
            "type" : "SCALAR"
        }
    ],
    "bufferViews" : [
        {
            "buffer" : 0,
            "byteLength" : 5004,
            "byteOffset" : 0
        },
        {
            "buffer" : 0,
            "byteLength" : 5004,
            "byteOffset" : 5004
        },
        {
            "buffer" : 0,
            "byteLength" : 3336,
            "byteOffset" : 10008
        },
        {
            "buffer" : 0,
            "byteLength" : 2244,
            "byteOffset" : 13344
        },
        {
            "buffer" : 0,
            "byteLength" : 17359,
            "byteOffset" : 15588
        },
        {
            "buffer" : 0,
            "byteLength" : 1164,
            "byteOffset" : 32948
        },
        {
            "buffer" : 0,
            "byteLength" : 1164,
            "byteOffset" : 34112
        },
        {
            "buffer" : 0,
            "byteLength" : 776,
            "byteOffset" : 35276
        },
        {
            "buffer" : 0,
            "byteLength" : 768,
            "byteOffset" : 36052
        },
        {
            "buffer" : 0,
            "byteLength" : 19661,
            "byteOffset" : 36820
        },
        {
            "buffer" : 0,
            "byteLength" : 13440,
            "byteOffset" : 56484
        },
        {
            "buffer" : 0,
            "byteLength" : 13440,
            "byteOffset" : 69924
        },
        {
            "buffer" : 0,
            "byteLength" : 8960,
            "byteOffset" : 83364
        },
        {
            "buffer" : 0,
            "byteLength" : 6660,
            "byteOffset" : 92324
        },
        {
            "buffer" : 0,
            "byteLength" : 18181,
            "byteOffset" : 98984
        },
        {
            "buffer" : 0,
            "byteLength" : 7080,
            "byteOffset" : 117168
        },
        {
            "buffer" : 0,
            "byteLength" : 7080,
            "byteOffset" : 124248
        },
        {
            "buffer" : 0,
            "byteLength" : 4720,
            "byteOffset" : 131328
        },
        {
            "buffer" : 0,
            "byteLength" : 5760,
            "byteOffset" : 136048
        },
        {
            "buffer" : 0,
            "byteLength" : 10064,
            "byteOffset" : 141808
        }
    ],
    "samplers" : [
        {
            "magFilter" : 9728,
            "minFilter" : 9984
        }
    ],
    "buffers" : [
        {
            "byteLength" : 151872,
            "uri" : "data:application/octet-stream;base64,"
        }
    ]
}
